# xmcd
#
# Track frame offsets: 
#        150
#        25148
#        46213
#        64768
#        79388
#        96426
#        123167
#        140758
#        155265
#        169916
#        191806
#        211959
#        218399
#        237695
#        253756
#        273539
#        289643
#
# Disc length: 4039 seconds
#
# Revision: 0
# Processed by: cddbd v1.5.2PL0 Copyright (c) Steve Scherf et al.
# Submitted via: ExactAudioCopy v1.1
#
DISCID=010fc511
DTITLE=Dean Owens - Into The Sea (Deluxe Edition)
DYEAR=2016
DGENRE=
TTITLE0=Dora
TTITLE1=Closer To Home
TTITLE2=Evergreen
TTITLE3=Kids (1979)
TTITLE4=Virginia Street
TTITLE5=It Could Be Worse
TTITLE6=Up On The Hill
TTITLE7=Valentine's Day In New York
TTITLE8=Days Without You
TTITLE9=Sally's Song (I Dreamed Of Michael Marra)
TTITLE10=The Only One
TTITLE11=It Could Be Worse (Reprise)
TTITLE12=I'm Pretending I Don't Love You Anymore
TTITLE13=Alison Wonderland
TTITLE14=Cotton Snow
TTITLE15=Forgotten Shadows
TTITLE16=Keep Me In Your Heart
EXTD=
EXTT0=
EXTT1=
EXTT2=
EXTT3=
EXTT4=
EXTT5=
EXTT6=
EXTT7=
EXTT8=
EXTT9=
EXTT10=
EXTT11=
EXTT12=
EXTT13=
EXTT14=
EXTT15=
EXTT16=
PLAYORDER=
